<svg xmlns="http://www.w3.org/2000/svg" viewBox="0 0 190.5 15.0" width="191" height="15">
  <g fill="#000" transform="translate(2,2)">
  <path transform="matrix(0.011,0,0,-0.011,0,11)" d="M226 378V592H348Q375 592 400.0 588.0Q425 584 444.0 572.5Q463 561 474.5 540.0Q486 519 486 485Q486 451 474.5 430.0Q463 409 444.0 397.5Q425 386 400.0 382.0Q375 378 348 378ZM69 714V0H226V256H391Q458 256 505.0 275.5Q552 295 581.5 327.0Q611 359 624.5 400.5Q638 442 638 485Q638 529 624.5 570.0Q611 611 581.5 643.0Q552 675 505.0 694.5Q458 714 391 714Z"/>
  <path transform="matrix(0.011,0,0,-0.011,8.536999999999999,11)" d="M249 276 342 538H344L434 276ZM264 714 -6 0H152L208 159H475L529 0H692L425 714Z"/>
  <path transform="matrix(0.011,0,0,-0.011,17.272,11)" d="M69 714V0H216V478H218L515 0H672V714H525V235H523L225 714Z"/>
  <path transform="matrix(0.011,0,0,-0.011,26.622999999999998,11)" d="M226 132V582H338Q396 582 435.5 565.5Q475 549 499.0 518.0Q523 487 533.5 443.5Q544 400 544 346Q544 287 529.0 246.0Q514 205 489.0 179.5Q464 154 432.0 143.0Q400 132 366 132ZM69 714V0H377Q459 0 519.5 27.5Q580 55 620.5 103.0Q661 151 681.0 217.0Q701 283 701 361Q701 450 676.5 516.0Q652 582 608.5 626.0Q565 670 505.5 692.0Q446 714 377 714Z"/>
  <path transform="matrix(0.011,0,0,-0.011,35.974,11)" d="M249 276 342 538H344L434 276ZM264 714 -6 0H152L208 159H475L529 0H692L425 714Z"/>
  <path transform="matrix(0.011,0,0,-0.011,48.967,11)" d="M226 391V592H398Q452 592 479.0 568.5Q506 545 506 493Q506 439 479.0 415.0Q452 391 398 391ZM69 714V0H226V279H383Q442 279 468.0 253.0Q494 227 502 171Q508 128 511.0 81.0Q514 34 527 0H684Q673 15 667.5 36.5Q662 58 659.5 82.0Q657 106 656.0 129.0Q655 152 654 169Q652 196 646.5 223.0Q641 250 629.0 272.5Q617 295 598.0 311.5Q579 328 550 336V338Q610 362 636.5 408.0Q663 454 663 517Q663 558 648.5 593.5Q634 629 606.5 656.0Q579 683 540.5 698.5Q502 714 454 714Z"/>
  <path transform="matrix(0.011,0,0,-0.011,58.108999999999995,11)" d="M69 714V0H611V132H226V307H572V429H226V582H603V714Z"/>
  <path transform="matrix(0.011,0,0,-0.011,66.437,11)" d="M176 237H24Q23 171 48.0 123.0Q73 75 115.5 44.0Q158 13 213.5 -1.5Q269 -16 328 -16Q401 -16 456.5 1.0Q512 18 549.5 48.5Q587 79 606.0 121.0Q625 163 625 212Q625 272 599.5 310.5Q574 349 539.0 372.0Q504 395 468.5 405.5Q433 416 413 420Q346 437 304.5 448.0Q263 459 239.5 470.0Q216 481 208.0 494.0Q200 507 200 528Q200 551 210.0 566.0Q220 581 235.5 591.0Q251 601 270.0 605.0Q289 609 308 609Q337 609 361.5 604.0Q386 599 405.0 587.0Q424 575 435.5 554.0Q447 533 449 501H601Q601 563 577.5 606.5Q554 650 514.0 678.0Q474 706 422.5 718.5Q371 731 315 731Q267 731 219.0 718.0Q171 705 133.0 678.0Q95 651 71.5 610.5Q48 570 48 515Q48 466 66.5 431.5Q85 397 115.0 374.0Q145 351 183.0 336.5Q221 322 261 312Q300 301 338.0 292.0Q376 283 406.0 271.0Q436 259 454.5 241.0Q473 223 473 194Q473 167 459.0 149.5Q445 132 424.0 122.0Q403 112 379.0 108.5Q355 105 334 105Q303 105 274.0 112.5Q245 120 223.5 135.5Q202 151 189.0 176.0Q176 201 176 237Z"/>
  <path transform="matrix(0.011,0,0,-0.011,74.776,11)" d="M227 582V0H384V582H598V714H13V582Z"/>
  <path transform="matrix(0.011,0,0,-0.011,82.697,11)" d="M249 276 342 538H344L434 276ZM264 714 -6 0H152L208 159H475L529 0H692L425 714Z"/>
  <path transform="matrix(0.011,0,0,-0.011,91.432,11)" d="M675 270V714H518V270Q518 190 486.0 152.5Q454 115 370 115Q322 115 293.5 128.5Q265 142 249.0 163.5Q233 185 228.0 213.0Q223 241 223 270V714H66V270Q66 124 145.5 54.0Q225 -16 370 -16Q513 -16 594.0 54.5Q675 125 675 270Z"/>
  <path transform="matrix(0.011,0,0,-0.011,100.783,11)" d="M226 391V592H398Q452 592 479.0 568.5Q506 545 506 493Q506 439 479.0 415.0Q452 391 398 391ZM69 714V0H226V279H383Q442 279 468.0 253.0Q494 227 502 171Q508 128 511.0 81.0Q514 34 527 0H684Q673 15 667.5 36.5Q662 58 659.5 82.0Q657 106 656.0 129.0Q655 152 654 169Q652 196 646.5 223.0Q641 250 629.0 272.5Q617 295 598.0 311.5Q579 328 550 336V338Q610 362 636.5 408.0Q663 454 663 517Q663 558 648.5 593.5Q634 629 606.5 656.0Q579 683 540.5 698.5Q502 714 454 714Z"/>
  <path transform="matrix(0.011,0,0,-0.011,109.925,11)" d="M249 276 342 538H344L434 276ZM264 714 -6 0H152L208 159H475L529 0H692L425 714Z"/>
  <path transform="matrix(0.011,0,0,-0.011,118.66,11)" d="M69 714V0H216V478H218L515 0H672V714H525V235H523L225 714Z"/>
  <path transform="matrix(0.011,0,0,-0.011,128.011,11)" d="M227 582V0H384V582H598V714H13V582Z"/>
  <path transform="matrix(0.011,0,0,-0.011,140.19,11)" d="M585 81 601 0H701V386H401V269H559Q552 194 509.5 154.5Q467 115 389 115Q336 115 299.0 135.5Q262 156 239.0 190.0Q216 224 205.5 266.5Q195 309 195 354Q195 401 205.5 445.0Q216 489 239.0 523.5Q262 558 299.0 578.5Q336 599 389 599Q446 599 486.0 569.0Q526 539 540 479H690Q684 540 657.0 587.0Q630 634 588.5 666.0Q547 698 495.5 714.5Q444 731 389 731Q307 731 241.5 702.0Q176 673 131.0 622.0Q86 571 62.0 502.5Q38 434 38 354Q38 276 62.0 208.5Q86 141 131.0 91.0Q176 41 241.5 12.5Q307 -16 389 -16Q441 -16 492.0 5.5Q543 27 585 81Z"/>
  <path transform="matrix(0.011,0,0,-0.011,149.739,11)" d="M226 391V592H398Q452 592 479.0 568.5Q506 545 506 493Q506 439 479.0 415.0Q452 391 398 391ZM69 714V0H226V279H383Q442 279 468.0 253.0Q494 227 502 171Q508 128 511.0 81.0Q514 34 527 0H684Q673 15 667.5 36.5Q662 58 659.5 82.0Q657 106 656.0 129.0Q655 152 654 169Q652 196 646.5 223.0Q641 250 629.0 272.5Q617 295 598.0 311.5Q579 328 550 336V338Q610 362 636.5 408.0Q663 454 663 517Q663 558 648.5 593.5Q634 629 606.5 656.0Q579 683 540.5 698.5Q502 714 454 714Z"/>
  <path transform="matrix(0.011,0,0,-0.011,158.881,11)" d="M195 354Q195 401 205.5 445.0Q216 489 239.0 523.5Q262 558 299.0 578.5Q336 599 389 599Q442 599 479.0 578.5Q516 558 539.0 523.5Q562 489 572.5 445.0Q583 401 583 354Q583 309 572.5 266.5Q562 224 539.0 190.0Q516 156 479.0 135.5Q442 115 389 115Q336 115 299.0 135.5Q262 156 239.0 190.0Q216 224 205.5 266.5Q195 309 195 354ZM38 354Q38 276 62.0 208.5Q86 141 131.0 91.0Q176 41 241.5 12.5Q307 -16 389 -16Q472 -16 537.0 12.5Q602 41 647.0 91.0Q692 141 716.0 208.5Q740 276 740 354Q740 434 716.0 502.5Q692 571 647.0 622.0Q602 673 537.0 702.0Q472 731 389 731Q307 731 241.5 702.0Q176 673 131.0 622.0Q86 571 62.0 502.5Q38 434 38 354Z"/>
  <path transform="matrix(0.011,0,0,-0.011,168.639,11)" d="M675 270V714H518V270Q518 190 486.0 152.5Q454 115 370 115Q322 115 293.5 128.5Q265 142 249.0 163.5Q233 185 228.0 213.0Q223 241 223 270V714H66V270Q66 124 145.5 54.0Q225 -16 370 -16Q513 -16 594.0 54.5Q675 125 675 270Z"/>
  <path transform="matrix(0.011,0,0,-0.011,177.99,11)" d="M226 378V592H348Q375 592 400.0 588.0Q425 584 444.0 572.5Q463 561 474.5 540.0Q486 519 486 485Q486 451 474.5 430.0Q463 409 444.0 397.5Q425 386 400.0 382.0Q375 378 348 378ZM69 714V0H226V256H391Q458 256 505.0 275.5Q552 295 581.5 327.0Q611 359 624.5 400.5Q638 442 638 485Q638 529 624.5 570.0Q611 611 581.5 643.0Q552 675 505.0 694.5Q458 714 391 714Z"/>
  </g>
</svg>