<svg version="1.1" xmlns="http://www.w3.org/2000/svg" viewBox="0 0 310.8 30"><style>.st0{fill:#134a8e;}.st1{fill:#ED174F;}</style><g><path class="st0" d="m 156.9,24.6 1,1.9 1,-1.9 7.9,0.6 -1.9,-2.3 8.7,-7.5 -2.1,-0.7 0.4,-4.6 -4.2,0.7 -0.9,-2.3 -0.7,0.7 c 0,0 -1.7,1.6 -2.4,2.3 l -0.5,0.5 0.7,-7.2 -3.1,1.2 -3,-4.9 -3,4.9 -2.8,-1.1 0.1,1.1 c 0,0 0.1,1.1 0.2,2.2 l 0.4,3.8 -0.5,-0.5 c -0.7,-0.7 -2.4,-2.3 -2.4,-2.3 l -0.7,-0.7 -0.9,2.3 -4.2,-0.7 0.4,4.6 -2.1,0.7 8.7,7.5 -1.9,2.3 z"/><path class="st1" d="m 165.2,24.5 -1.4,-1.6 8.3,-7.2 -1.5,-0.5 0.3,-4.3 -3.9,0.7 -0.7,-1.9 c 0,0 -2.5,2.5 -2.8,2.8 -0.2,0.2 -0.5,0.3 -0.7,0.3 -0.3,0 -0.6,-0.3 -0.5,-1 0.1,-0.7 0.6,-5.8 0.6,-5.8 l -2.3,0.9 -2.7,-4.5 -2.8,4.5 -2.3,-0.9 c 0,0 0.5,5.2 0.6,5.8 0.1,0.7 -0.2,1 -0.5,1 -0.2,0 -0.5,-0.1 -0.7,-0.3 -0.3,-0.3 -2.9,-2.8 -2.9,-2.8 l -0.7,1.9 -3.9,-0.7 0.4,4.3 -1.5,0.5 8.3,7.2 -1.4,1.6 6.8,-0.6 0.6,1.2 0.6,-1.2 z"/><path class="st0" d="M 96.4,15.5 84.5,5 v 17.5 c 0,0.7 -0.1,1.5 -0.6,2.2 h 5 C 88.5,24.1 88.5,23.5 88.5,22.5 V 22.4 14 l 11.9,10.5 V 6.9 c 0,-0.6 0.1,-1.3 0.4,-2 H 96 c 0.3,0.5 0.4,1.1 0.4,1.9 z"/><path class="st0" d="M 6.6,4.9 5.9,9.1 C 6.8,8.6 7.5,8.5 8.5,8.4 h 3.1 v 14 c 0,1 -0.2,1.7 -0.7,2.2 h 5.5 C 15.9,24 15.6,23.2 15.6,22.4 V 8.4 H 19 c 0.9,0 1.8,0.3 2.6,0.7 L 20.8,4.8 H 6.6 Z"/><path class="st0" d="M 103.8,4.9 103,9.1 c 0.9,-0.5 1.6,-0.6 2.6,-0.7 h 3.1 v 14 c 0,0.9 -0.2,1.6 -0.7,2.2 h 5.6 c -0.5,-0.6 -0.8,-1.4 -0.8,-2.2 v -14 h 3.4 c 0.9,0 1.8,0.3 2.6,0.7 L 118,4.9 Z"/><path class="st0" d="m 59.8,22.9 -4.3,-6.2 0.4,-0.3 c 1.9,-1.2 2.5,-2.7 2.6,-3 0.2,-0.7 0.4,-1.4 0.3,-2.2 0,-1 -0.2,-2 -0.6,-2.8 L 58.1,8.3 C 57.7,7.6 57.4,7.2 56.9,6.7 56.2,6 55.1,5.5 53.9,5.2 53.6,5.1 52.5,4.9 51.4,4.9 h -6.5 c 0.5,0.7 0.8,1.3 0.8,2 v 15.6 c 0,0 0,0.5 -0.1,0.9 -0.1,0.4 -0.4,0.9 -0.7,1.2 h 5.4 C 49.7,24 49.7,23.2 49.6,22.4 V 15 l 6.6,9.6 h 5.2 c -0.5,-0.4 -1,-1 -1.6,-1.7 z M 54.6,12.4 c -0.1,0.2 -0.8,1.5 -3,1.5 H 49.7 V 8.8 h 1.8 c 1.8,0 2.7,0.5 3.2,1.6 0.3,0.8 0,1.7 -0.1,2 z"/><path class="st0" d="m 208.8,21 c 0.8,0.9 2.1,1.3 3.5,1.3 2.6,0 4.5,-1.6 4.5,-3.7 V 4.9 h -2.5 c 0.7,0.5 0.9,1.2 0.9,2.2 0,0 0,7.4 0,11.3 0,1.3 -1.3,2.3 -2.8,2.3 -1.5,0 -2.8,-1 -2.8,-2.3 V 7.1 c 0,-1 0.3,-1.7 1,-2.2 h -2.7 v 13.7 c 0,0.9 0.3,1.7 1,2.4 z"/><path class="st0" d="m 220.5,4.9 h -2.5 v 14 c 0,2.4 -2.5,4.4 -5.5,4.4 -1,0 -2,-0.2 -2.9,-0.6 -1.6,-0.8 -2.6,-2.3 -2.6,-3.7 0,0 0,-0.1 0,-0.5 V 4.9 h -2.6 c 0.7,0.5 0.9,1.1 0.9,2.2 0,0 0,11.6 0,11.6 0,3.9 2.7,6.2 7.1,6.2 4.4,0 7.3,-2.5 7.3,-6.2 V 7.1 c 0.1,-1 0.4,-1.7 1,-2.2 z"/><path class="st0" d="m 290.6,4.9 h -2.7 l -5.8,12.2 v 7.6 h 2.8 c -0.7,-0.5 -1.1,-1.1 -1.2,-2.1 v -5 l 5.1,-10.8 c 0.2,-0.5 0.5,-1 1.8,-1.9 z"/><path class="st0" d="m 286.7,4.9 h -3.3 c 0.3,0.2 0.5,0.5 0.6,0.6 v 0.1 c 0.1,0.3 0.1,0.6 -0.3,1.6 l -2.2,5 -2.2,-5 C 279,6.5 279.1,5.9 279.1,5.8 0.1,-0.4 0.3,-0.6 0.6,-0.8 h -3.4 l 5.2,10.9 z"/><path class="st0" d="m 275.2,4.9 h -2.6 c 0.8,0.5 1.1,0.9 1.6,1.7 l 5.2,10.9 v 4.7 c 0,1.3 -0.6,2 -1.2,2.4 h 2.9 V 17 Z"/><path class="st0" d="m 253.7,4.9 v 13.5 c 0,0.1 0.2,2.1 -1.2,3.4 -1,1 -2.4,1.5 -3.9,1.5 -1.6,0 -3.3,-0.7 -4.3,-1.8 -0.4,-0.5 -0.6,-0.7 -1,-1.4 l -1.4,1.4 c 2,3.2 5.3,3.4 6.3,3.4 0.2,0 0.3,0 0.3,0 1.6,0 3,-0.4 4.2,-1.1 1.5,-1 2.4,-2.5 2.6,-4.3 0,-0.1 0,-0.6 0,-0.7 V 7.1 c 0,-1 0.7,-1.8 1.1,-2.2 z"/><path class="st0" d="m 248.6,22.4 h 0.2 c 2,0 4.1,-1.2 4.1,-3.5 V 4.9 H 250 c 0.5,0.5 1,1.3 1,2.2 v 11.6 c 0,1.2 -1.2,2 -2.3,2 -0.9,0 -1.6,-0.4 -1.8,-0.5 -0.8,-0.5 -1.1,-1.7 -1.2,-2.3 l -1.6,1.6 c 0.4,0.7 1.2,1.6 1.2,1.6 0.6,0.5 1.6,1.3 3.3,1.3 z"/><path class="st0" d="m 182.1,7.6 h -3.3 v 6.1 h 3.3 c 2.3,0 3.9,-1.2 3.9,-2.9 0,-1.8 -1.7,-3.2 -3.9,-3.2 z m 0,4.8 h -1.6 V 9.2 h 1.6 c 1.2,0 2.1,0.6 2.1,1.6 0,1.3 -1.3,1.6 -2.1,1.6 z"/><path class="st0" d="m 186.8,18.5 c 0,-3.2 -3,-3.7 -4.8,-3.7 h -3.2 V 22 h 3.2 c 1.8,0 4.8,-0.5 4.8,-3.5 z m -6.3,1.8 v -4.2 h 1.5 c 2,0 2.7,0.8 2.9,1.4 0.1,0.3 0.1,0.8 0,1.1 -0.3,0.9 -0.7,1.6 -2.8,1.6 h -1.5 z"/><path class="st0" d="m 187.7,14.3 -0.2,-0.1 0.2,-0.1 c 0,0 1.2,-1 1.2,-3.2 C 188.9,7.6 186,5 182.2,5 h -7 c 0.6,0.5 1,1.3 1,2.2 v 15.1 c 0,1.2 -0.4,2 -1.1,2.5 h 7 c 6.1,0 7.7,-4 7.7,-6.1 -0.1,-1.9 -0.8,-3.4 -2.1,-4.4 z M 182,23 h -4.2 V 6.5 h 4.3 c 2.8,0 4.9,1.9 4.9,4.3 0,1.4 -0.8,2.5 -2.3,3.3 1.9,0.6 3.1,2.3 3.1,4.4 0.1,2.8 -2.1,4.5 -5.8,4.5 z"/><path class="st0" d="m 193.5,4.9 h -2.6 c 0.6,0.5 0.9,1.2 0.9,2.2 v 15.1 c 0,1.1 -0.4,1.8 -1.2,2.4 h 12 l 0.3,-1.6 h -9.4 z"/><path class="st0" d="m 200.1,20.4 c -0.6,0 -2.5,0 -3.7,0 h -0.2 v -0.2 c 0,-1.7 0,-11.4 0,-12.9 0,0 0.1,-1.5 0.9,-2.2 h -2.6 v 17 h 8.5 l 0.5,-2.7 c -0.5,0.4 -1.6,1 -3.1,1 h -0.3 z"/><path class="st0" d="m 232.7,20.3 c 0,0 -0.2,0 -1.3,0 -1.5,0 -3.7,0 -3.7,0 h -0.2 v -4.1 h 3.7 c 1.1,0 1.8,0.5 2.1,0.8 v -2.2 h -7.5 V 22 h 9.3 l 0.5,-2.6 c -0.6,0.4 -1.3,0.9 -2.9,0.9 z"/><path class="st0" d="m 225.8,13.8 h 7.6 v -2.2 c -0.4,0.4 -1,0.8 -2.1,0.8 h -3.8 V 9.2 h 4.6 c 1.6,0 2.5,0.5 3,0.8 l -0.4,-2.4 h -8.8 v 6.2 z"/><path class="st0" d="m 224.7,6.5 h 9.7 L 234.1,4.9 H 222 c 0.7,0.6 1.1,1.4 1.1,2.2 0,7.6 0,11.4 0,13.3 0,1.9 0,1.9 0,1.9 0,0.5 -0.2,1.6 -1.2,2.3 h 12.8 L 235,23 H 224.8 V 6.5 Z"/><path class="st0" d="m 262.6,17.6 h 7 L 266,9.8 Z m 2.1,-1.3 1.3,-3.1 1.3,3.1 z"/><path class="st0" d="m 274.5,22 L 266,3.7 257.6,22 c -0.7,1.3 -1.4,2.2 -2.1,2.7 h 2.7 l 7.8,-17.5 7.7,17.4 h 2.6 C 275.6,24 275,23.1 274.5,22 Z"/><path class="st0" d="m 262.1,18.7 -2.7,6 h 3.2 c -0.5,-0.6 -0.6,-1.4 -0.3,-2.3 l 1,-2.3 h 5.4 l 1.1,2.4 c 0.4,1 0.3,1.7 -0.3,2.2 h 3.1 l -2.7,-6 z"/><path class="st0" d="m 303.5,19 c 0,-4.7 -3.8,-5.9 -5.6,-6.4 h -0.1 c -1.9,-0.6 -2.5,-1 -2.6,-1.8 0,-0.2 0,-0.3 0,-0.4 0.1,-1 0.9,-1.5 2.2,-1.5 0.3,0 2.3,0.2 2.6,2.5 l 1.4,-1.6 C 301,9 299.8,7.4 297.2,7.3 c -2.3,-0.1 -3.8,1.3 -3.8,3.5 0,2.1 1.7,2.7 3.2,3.2 h 0.1 l 0.7,0.3 c 0.1,0.1 0.3,0.1 0.4,0.1 1.4,0.5 2.7,1 3.5,2.4 0,0 0.5,1 0.5,2.2 0,1.2 -0.4,2.2 -1.2,2.9 -1,1 -2.4,1.5 -3.9,1.5 -1.6,0 -3.1,-0.6 -4.2,-1.8 -0.4,-0.5 -0.6,-0.7 -1,-1.4 l -1.3,1.4 c 2,3.1 5.3,3.4 6.2,3.4 0.1,0 0.1,0 0.1,0 h 0.2 c 1.5,0 3,-0.4 4.1,-1.1 1.7,-1.1 2.7,-2.9 2.7,-4.9 z"/><path class="st0" d="m 296.6,22.4 h 0.2 c 2.2,0 3.9,-1.4 3.9,-3.3 0,-1.5 -0.5,-2.5 -1.7,-3.1 -1,-0.5 -2.4,-1 -2.4,-1 -2.4,-0.8 -4.2,-1.7 -4.3,-4.3 0,-1.2 0.4,-2.3 1.2,-3.1 0.9,-0.9 2.3,-1.4 3.8,-1.4 0.8,0 3.4,0.3 4.8,2.7 l 1.1,-1.3 -0.1,-0.1 -0.2,-0.2 c -1.2,-1.5 -3.5,-2.7 -5.7,-2.7 -1.6,0 -3,0.4 -4.1,1.1 -1.5,1 -2.4,2.4 -2.6,4.2 0,0.3 0,0.5 -0.1,0.8 0,4 2.8,4.9 5.1,5.7 l 0.2,0.1 c 2,0.7 3.1,1.3 3.1,2.5 0,0.8 -0.9,1.7 -2.2,1.7 -0.9,0 -1.6,-0.3 -1.8,-0.5 -0.8,-0.5 -1.1,-1.7 -1.2,-2.3 l -1.6,1.6 c 0.3,0.6 1,1.3 1,1.4 1.1,1 2.2,1.5 3.6,1.5 z"/><path class="st0" d="m 32.8,4.6 c -5.5,0 -10,4.3 -10.3,9.7 0,0.2 0,0.3 0,0.5 0,0.1 0,0.1 0,0.2 0,0.7 0.1,1.5 0.3,2.2 0,0 0,0 0,0.1 0,0.2 0.1,0.3 0.1,0.5 0,0 0,0.1 0,0.1 0,0.1 0.1,0.3 0.1,0.4 0,0 0,0.1 0,0.1 0,0.1 0.1,0.2 0.1,0.4 0.1,0.2 0.2,0.4 0.3,0.7 1.7,3.3 5.2,5.6 9.2,5.6 C 38.4,25 43,20.4 43,14.8 43,9.1 38.4,4.6 32.8,4.6 Z m 0,16.4 c -3.4,0 -6.3,-2.9 -6.3,-6.3 0,-3.4 2.9,-6.3 6.3,-6.3 3.4,0 6.3,2.9 6.3,6.3 -0.1,3.5 -3,6.3 -6.3,6.3 z"/><path class="st0" d="m 71.6,4.6 c -5.5,0 -10,4.3 -10.3,9.7 0,0.2 0,0.3 0,0.5 0,0.7 0.1,1.5 0.3,2.2 0,0.2 0.1,0.3 0.1,0.5 0,0.1 0.1,0.3 0.1,0.4 0.1,0.1 0.1,0.2 0.2,0.4 0.1,0.2 0.2,0.4 0.3,0.7 1.7,3.3 5.2,5.6 9.2,5.6 5.7,0 10.3,-4.6 10.3,-10.2 C 81.9,9.1 77.3,4.6 71.6,4.6 Z m 0,16.4 c -3.4,0 -6.3,-2.9 -6.3,-6.3 0,-3.4 2.9,-6.3 6.3,-6.3 3.4,0 6.3,2.9 6.3,6.3 0,3.5 -2.9,6.3 -6.3,6.3 z"/><path class="st0" d="m 129.8,4.6 c -5.5,0 -10,4.3 -10.3,9.7 0,0.2 0,0.3 0,0.5 0,0.7 0.1,1.5 0.3,2.2 0,0.2 0.1,0.3 0.1,0.5 0,0.1 0.1,0.3 0.1,0.4 0,0.1 0.1,0.2 0.1,0.4 0.1,0.2 0.2,0.4 0.3,0.7 1.7,3.3 5.2,5.6 9.2,5.6 5.7,0 10.3,-4.6 10.3,-10.2 0.1,-5.8 -4.5,-10.3 -10.2,-10.3 z m 0,16.4 c -3.4,0 -6.3,-2.9 -6.3,-6.3 0,-3.4 2.9,-6.3 6.3,-6.3 3.4,0 6.3,2.9 6.3,6.3 -0.1,3.5 -2.9,6.3 -6.3,6.3 z"/></g></svg>
