<?xml version="1.0" encoding="utf-8"?>
<svg version="1.1" xmlns="http://www.w3.org/2000/svg" xmlns:xlink="http://www.w3.org/1999/xlink" viewBox="0 0 183.93 150">
<path style="fill:#D8D8D8;" d="M86.22,5.3c2.91-0.99,6.24-2.52,6.24-2.52s3.33,1.53,6.25,2.52c21.65,7.36,38.32,2.4,59.1-5.3
	l-0.02,50.21h26.13l-8.07,53.3c0,0-4.39-2.18-8.66-4.11c0.03,2.97-1.84,8.58-10.11,6.46c-5.78,18.36-47.96,36.87-64.62,44.14
	c-13.5-5.89-65.41-29.28-65.57-48.78v-5.74c-9.77,2.26-17.31,5.31-26.9,8.19L7.88,50.2H27.1l0.02-50.19
	C47.92,7.71,64.58,12.66,86.22,5.3"/>
<path style="fill:#666666;" d="M154.16,53.86l0.03-48.61c-15.09,5.6-28.3,8.82-44.46,6.5c-9.48-1.36-17.26-4.94-17.26-4.94
	s-7.79,3.58-17.27,4.94c-16.15,2.32-29.35-0.89-44.44-6.5l-0.02,48.61H11L4.41,98.6c9.29-2.8,16.59-5.66,26.11-7.58v10.23
	c0.14,17.3,55.1,41.84,61.94,44.83c11.66-5.09,56.29-24.87,61.6-42.97c0.33-1.13,0.34-1.86,0.34-1.86V91.14
	c2.46,0.6,5.18,1.44,7.74,2.29c4.36,1.46,10.81,5.03,10.81,5.03l6.74-44.59L154.16,53.86L154.16,53.86z M169.19,91.56
	c0,0-11.71-5.69-19.44-6.35v-0.05c0,0-0.08,0.04-0.22,0.11c-1.41,0.64-9.19,3.66-15.16-5.05c0,0-2.64,4.55-7.05,5.65
	c-1.73,0.47-3.38,0.56-4.96,0.23c-6.01-0.84-8.54-5.42-8.83-5.99c-0.02-0.04-0.03-0.06-0.03-0.06c-0.25,0.45-2.29,3.97-5.65,5.21
	c-1.82,0.73-3.71,1.05-5.68,1.03h-0.01c-6.82-0.42-9.83-6.32-9.83-6.32c-0.22,0.36-2.8,5.34-9.8,6.15c-2.03,0.2-3.91-0.04-5.6-0.89
	c-3.56-1.41-5.44-4.77-5.69-5.22c0,0-2.3,5.37-8.94,6.28c-1.68,0.19-3.3,0.06-4.83-0.44c-4.36-1-7.11-5.66-7.11-5.66
	c-6.58,9.62-15.28,5-15.28,5v0.04c-7.75,0.65-25.06,6.44-25.06,6.44l4.95-33.54h27.67l-7.31-4.72V11.52c31.83,11.8,57.09,0,57.09,0
	s25.27,11.8,57.1,0v41.87l-7.31,4.72h32.07L169.19,91.56z"/>
<path style="fill:#B8B8B8;" d="M59.96,84.53c1.83-0.05,2.34,1.75,2.34,1.75l-15.69,28.8c-4.66-3.8-7-6.62-7-6.62L57.42,85.9
	C57.42,85.89,58.13,84.58,59.96,84.53 M80.02,84.01c-1.74-0.46-3.1,1.22-3.1,1.22L66.24,127.9c0,0,5.68,3.32,12.16,6.42l4.13-48.21
	C82.52,86.12,81.76,84.46,80.02,84.01 M127.19,85.71c0,0-0.71-1.3-2.54-1.36s-2.29,1.75-2.29,1.75l15.89,29.08
	c5.12-4.18,6.96-6.76,6.96-6.76L127.19,85.71z M104.74,84.14c-1.74,0.46-2.58,2.15-2.58,2.15l4.03,48.4
	c6.48-3.1,12.45-6.4,12.45-6.4l-10.79-43.04C107.84,85.25,106.47,83.69,104.74,84.14"/>
<path style="fill:#3A3A3A;" d="M28.99,61.97c5.42,0,6.75,2.17,6.26,5.98h-5.26c0.11-1.02-0.02-1.66-0.35-2.05
	c-0.32-0.38-0.83-0.5-1.49-0.5c-1.14,0-1.82,0.6-1.96,1.55c-0.04,0.29-0.02,0.64,0.1,0.84c0.66,1.16,6.44,1.97,7.82,4.18
	c0.4,0.64,0.77,1.64,0.5,3.42c-0.54,3.66-3.11,6.01-8.92,6.01c-6.92,0-6.82-2.99-6.42-6.42h5.47c-0.13,1.03-0.1,1.77,0.16,2.26
	c0.29,0.48,0.73,0.74,1.44,0.74c1.11,0,2.36-0.39,2.58-1.86c0.05-0.34,0-1.34-0.11-1.58c-0.55-1.16-6.52-2.04-7.91-4.22
	c-0.57-0.87-0.58-1.44-0.43-2.49C21.06,63.78,23.88,61.97,28.99,61.97 M56.99,62.29l-3.33,7.88h-0.05l-0.65-7.88h-5.92l-4.03,7.88
	h-0.05v-7.88h-5.13l0.37,16.79l4.97-0.85l5.62-10.99l0.8,10.13l5.73-0.59l6.45-14.48h-4.78V62.29z M63.54,62.29l-2.92,14.05
	l5.3-0.43l2.92-13.63L63.54,62.29L63.54,62.29z M80.62,70.74h-0.03l-0.84-8.45H71.7l-2.85,13.53l4.7-0.34l1.99-10.07h0.05
	l1.38,10.07l4.97-0.36l5.49-9.71h0.03l-2.1,9.71l5.02-0.22l2.67-12.61h-8.08L80.62,70.74z M104.76,70.74h-0.04l-0.84-8.45h-8.05
	L93.15,74.9l4.44,0.22l2.08-9.71h0.05l1.38,9.83l4.79,0.07l5.67-9.9h0.04l-2.2,9.99l4.96,0.25l2.83-13.36h-8.08L104.76,70.74z
	 M120.03,62.29l-2.84,13.46l5.22,0.43l2.92-13.88L120.03,62.29L120.03,62.29z M138.51,72.06l-0.14-1.32l-2.45-8.45h-7.77l-3,14.14
	l4.54,0.34l2.3-10.85h0.04l3.31,11.61l6.25,0.77l3.24-16.01h-4.6L138.51,72.06z M154.36,73.13h3.07l-0.76,3.52
	c-0.56,0.84-1.63,1.15-2.78,1.15c-2.64,0-3.38-4.91-2.87-7.34c0.48-2.27,2.06-5.85,4.33-5.84c3.3,0.01,2.44,2.8,2.44,3.13h5.47
	c0.81-4.91-2.71-5.78-7.29-5.78c-5.55,0-9.32,4.11-10.32,8.84c-0.79,3.72,0.65,9.46,6.98,9.73c0.91,0.04,3.61-0.74,3.6-0.77
	c0.04,0-0.33,1.8-0.35,1.8c1.59,0.42,3.9,0.79,4.78,1.13l2.66-12.22h-8.38L154.36,73.13z"/>
<path style="fill:#4A4A4A;" d="M46.72,22.11h9.43L53.34,45.4c-0.25,2.11-0.79,6.49,4.81,6.49c1.75,0,5.82,0,6.6-6.44l2.82-23.33
	h9.21L73.95,45.5c-0.25,2.12-0.93,7.21-5.52,10.15c-3.12,1.98-6.77,2.69-10.55,2.69c-4.35,0-8.7-0.91-11-2.93
	c-3.63-3.22-3.31-7.26-2.92-10.43L46.72,22.11z M108.35,27.74c-2.88-4.23-6.92-6.35-13.02-6.35c-8.53,0-14.01,4.18-14.71,10
	c-0.85,6.98,4.3,9.33,10.32,11.41c5.97,2.06,7.59,2.64,7.27,5.28c-0.39,3.22-4.05,4-6.02,4c-3.56,0-6.11-1.83-7.27-4.81l-7.54,3.99
	c3.04,5.67,7.16,7.17,14.44,7.17c2.09,0,5.6-0.53,8.18-1.78c6.24-3.03,6.81-7.74,7-9.33c0.4-3.33-1.12-5.64-1.56-6.21
	c-1.41-1.92-4.17-3.36-6.56-4.14l-5.06-1.63c-2.44-0.76-5.04-1.79-4.73-4.28c0.05-0.38,0.52-3.41,5.27-3.41
	c3.22,0,5.65,1.82,6.69,3.94L108.35,27.74z M126.83,28.41h-0.23l-6.45,15.97h9.32L126.83,28.41z M132.96,22.11l7.71,35.31h-8.87
	l-1.24-7.02h-12.71l-3,7.02h-8.87l15.97-35.31H132.96z"/>
<polygon style="fill:#D8D8D8;" points="99.17,115.55 92.31,110.57 85.45,115.55 88.07,107.48 81.21,102.5 89.69,102.5 92.31,94.43
	94.93,102.5 103.41,102.5 96.55,107.48 "/>
</svg>
